<svg xmlns="http://www.w3.org/2000/svg" xml:space="preserve" width="100%" height="100%" version="1.1" viewBox="0 0 14624 1703" xmlns:xlink="http://www.w3.org/1999/xlink">
<path class="fil0" d="M1655 986c0,101 -18,194 -52,279 -35,85 -84,158 -145,219 -62,61 -135,109 -220,144 -85,34 -177,52 -276,52l-811 0c-21,0 -41,-4 -60,-12 -18,-8 -34,-18 -48,-32 -13,-13 -24,-29 -32,-48 -7,-18 -11,-38 -11,-60l0 -527 300 0 0 378 662 0c58,0 112,-9 160,-28 48,-19 90,-46 124,-80 35,-34 61,-75 80,-123 19,-48 29,-102 29,-162l0 -270c0,-58 -10,-112 -29,-160 -19,-49 -45,-90 -80,-125 -34,-34 -76,-60 -124,-79 -48,-19 -102,-29 -160,-29l-662 0 0 378 -300 0 0 -526c0,-21 4,-41 11,-59 8,-19 19,-35 32,-49 14,-14 30,-24 48,-32 19,-8 39,-12 60,-12l811 0c99,0 191,18 276,52 85,35 158,83 220,144 61,61 110,134 145,219 34,86 52,178 52,278l0 270z"></path>
<path class="fil1" d="M3311 1003l-948 0 0 -303 948 0 0 303zm5785 189c0,59 -8,113 -23,160 -15,48 -34,89 -59,125 -25,37 -54,67 -87,93 -33,25 -67,46 -103,62 -35,16 -71,28 -108,36 -36,8 -71,12 -103,12l-1159 0 0 -301 1159 0c58,0 103,-17 135,-51 31,-34 48,-79 48,-136 0,-28 -5,-53 -13,-76 -9,-23 -21,-43 -37,-60 -15,-17 -35,-30 -57,-40 -23,-9 -48,-13 -76,-13l-195 0 0 -303 195 0 2 0c33,1 67,5 103,13 36,9 73,21 108,38 36,17 70,38 103,64 32,26 61,57 85,93 25,36 45,78 60,125 15,47 22,100 22,159zm-978 -189l-196 0c-48,0 -101,-9 -157,-26 -56,-18 -108,-45 -156,-84 -49,-39 -88,-89 -120,-151 -32,-63 -48,-139 -48,-229 0,-90 16,-166 48,-228 32,-62 71,-113 120,-151 48,-39 100,-67 156,-85 56,-17 109,-26 157,-26l1023 0 0 300 -1023 0c-57,0 -101,18 -133,52 -32,35 -48,81 -48,138 0,57 16,103 48,137 32,33 76,50 133,50l196 0 0 303zm1975 -347l192 0c55,0 99,45 99,99l0 192c0,55 -44,100 -99,100l-192 0c-55,0 -100,-45 -100,-100l0 -192c0,-54 45,-99 100,-99zm-3877 0l192 0c55,0 100,45 100,99l0 192c0,55 -45,100 -100,100l-192 0c-54,0 -99,-45 -99,-100l0 -192c0,-54 45,-99 99,-99zm-2770 1024l-1083 0c-42,0 -87,-8 -136,-23 -49,-14 -95,-38 -137,-72 -42,-33 -77,-77 -105,-130 -29,-54 -42,-119 -42,-197l0 -1083c0,-21 3,-41 11,-59 8,-19 18,-35 32,-49 13,-14 29,-24 48,-32 18,-8 38,-12 60,-12l1352 0 0 300 -1203 0 0 935c0,39 10,69 31,90 21,21 51,31 91,31l1081 0 0 301zm1763 0l-1083 0c-28,0 -58,-4 -90,-10 -32,-7 -63,-17 -95,-31 -31,-14 -61,-32 -89,-54 -29,-21 -54,-48 -76,-79 -22,-31 -39,-68 -52,-109 -14,-41 -20,-88 -20,-139l0 -813c0,-28 3,-58 10,-90 6,-32 17,-63 30,-94 14,-32 32,-61 55,-90 22,-28 49,-53 80,-76 31,-22 67,-39 108,-52 41,-13 87,-20 139,-20l1083 0 0 300 -1083 0c-40,0 -70,11 -90,32 -21,20 -32,51 -32,92l0 811c0,38 11,68 32,90 21,20 51,31 90,31l1083 0 0 301zm1999 -670c0,101 -18,193 -52,278 -35,85 -83,158 -145,219 -62,62 -135,110 -219,144 -84,34 -176,52 -275,52l-407 0c-99,0 -191,-18 -276,-52 -85,-34 -158,-82 -219,-144 -62,-61 -110,-134 -145,-219 -35,-85 -53,-177 -53,-278l0 -317c0,-100 18,-193 53,-278 35,-85 83,-158 145,-219 61,-61 134,-109 219,-144 85,-35 177,-52 276,-52l407 0c99,0 191,17 275,52 84,35 157,83 219,144 62,61 110,134 145,219 34,85 52,178 52,278l0 317zm-301 -317c0,-59 -9,-113 -28,-161 -19,-48 -46,-89 -80,-124 -34,-34 -75,-60 -124,-79 -48,-19 -101,-29 -158,-29l-407 0c-58,0 -112,10 -160,29 -48,19 -89,45 -124,79 -35,35 -61,76 -80,124 -19,48 -29,102 -29,161l0 317c0,59 10,112 29,161 19,48 45,89 80,123 35,35 76,61 124,80 48,19 102,28 160,28l404 0c59,0 112,-9 160,-28 49,-19 90,-45 124,-80 35,-34 62,-75 81,-123 19,-49 28,-102 28,-161l0 -317zm4177 317c0,101 -17,193 -52,278 -35,85 -83,158 -144,219 -62,62 -135,110 -220,144 -84,34 -175,52 -275,52l-407 0c-99,0 -191,-18 -276,-52 -84,-34 -157,-82 -219,-144 -62,-61 -110,-134 -145,-219 -35,-85 -52,-177 -52,-278l0 -317c0,-100 17,-193 52,-278 35,-85 83,-158 145,-219 62,-61 135,-109 219,-144 85,-35 177,-52 276,-52l407 0c100,0 191,17 275,52 85,35 158,83 220,144 61,61 109,134 144,219 35,85 52,178 52,278l0 317zm-300 -317c0,-59 -10,-113 -29,-161 -19,-48 -45,-89 -80,-124 -34,-34 -75,-60 -123,-79 -48,-19 -101,-29 -159,-29l-407 0c-58,0 -111,10 -159,29 -48,19 -90,45 -125,79 -34,35 -61,76 -80,124 -19,48 -28,102 -28,161l0 317c0,59 9,112 28,161 19,48 46,89 80,123 35,35 77,61 125,80 48,19 101,28 159,28l405 0c58,0 111,-9 160,-28 48,-19 89,-45 124,-80 34,-34 61,-75 80,-123 19,-49 29,-102 29,-161l0 -317zm1967 310l-950 0 0 -303 950 0 0 303zm134 -680l-1204 0 0 1357 -301 0 0 -1505c0,-21 4,-41 12,-59 8,-19 18,-35 32,-49 13,-14 29,-24 48,-32 18,-8 39,-12 60,-12l1353 0 0 300zm1739 0l-662 0 0 1357 -300 0 0 -1357 -663 0 0 -300 1625 0 0 300z"></path>
</svg>
